<?xml version="1.0" encoding="UTF-8"?>
<svg width="140px" height="100px" viewBox="0 0 140 100" version="1.1" xmlns="http://www.w3.org/2000/svg" xmlns:xlink="http://www.w3.org/1999/xlink">
    <!-- Generator: Sketch 53 (72520) - https://sketchapp.com -->
    <title>choose_icon2</title>
    <desc>Created with Sketch.</desc>
    <defs>
        <polygon id="path-1" points="0.32166 0.32535 61.1998592 0.32535 61.1998592 61.2 0.32166 61.2"></polygon>
        <polygon id="path-3" points="0 2.70379114e-05 66.6264638 2.70379114e-05 66.6264638 66.6267338 0 66.6267338"></polygon>
    </defs>
    <g id="Order-form" stroke="none" stroke-width="1" fill="none" fill-rule="evenodd">
        <g id="choose_icon2">
            <path d="M0,25.5000002 C0,33.8000002 14.218,29.5700002 14.218,37.3810002 C14.218,43.1060002 2.084,41.7750002 3.883,53.0030002 C4.83,58.9210002 11.394,58.3210002 17.393,57.7210002 C22.774,57.1830002 27.701,56.6440002 27.701,60.8140002 C27.701,69.6330002 8.826,67.2920002 6.579,81.3830002 C4.333,95.4770002 9.52,97.6180002 19.162,99.3820002 C40.777,103.335 40.101,87.1430002 65.951,84.4770002 C74.483,83.5970002 81.007,87.1100002 87.968,90.6250002 C97.581,95.4780002 104.752,97.0000002 117.163,94.5000002 C126.113,91.1070002 139.007,86.0000002 140,71.5000002 C140,57.7210002 127.414,61.7650002 120.639,51.5000002 C116.294,44.9170002 133.361,39.8640002 128.813,31.1980002 C124.697,23.3580002 116.877,25.7080002 109.039,28.0590002 C102.394,30.0500002 95.734,32.0430002 91.313,27.8220002 C85.711,22.4760002 99.879,23.4980002 94.21,11.1830002 C90.404,2.91200023 80.051,2.28874043e-07 67.33,2.28874043e-07 C48.514,-0.000999771126 38.444,3.27500023 22.757,8.08900023 C10.509,11.8500002 0,17.2020002 0,25.5000002" id="back" fill="#F8F9F9"></path>
            <g id="icon" transform="translate(34.000000, 14.000000)">
                <g id="Group-3" transform="translate(10.800000, 10.800000)">
                    <mask id="mask-2" fill="white">
                        <use xlink:href="#path-1"></use>
                    </mask>
                    <g id="Clip-2"></g>
                    <path d="M44.45046,44.45145 C31.64526,57.25665 12.68226,59.40765 0.32166,50.07825 C1.08216,51.07995 1.90476,52.04475 2.81466,52.95915 C14.92686,65.07225 35.97426,63.66825 49.82436,49.82535 C63.66816,35.97615 65.07216,14.92965 52.95906,2.81745 C52.05006,1.90755 51.07986,1.08045 50.07726,0.32535 C59.40756,12.68505 57.25656,31.64625 44.45046,44.45145" id="Fill-1" fill="#F4BF1A" mask="url(#mask-2)"></path>
                </g>
                <g id="Group-6">
                    <mask id="mask-4" fill="white">
                        <use xlink:href="#path-3"></use>
                    </mask>
                    <g id="Clip-5"></g>
                    <path d="M58.38642,8.24409 C70.49862,20.36169 69.09462,41.40189 55.25082,55.25109 C41.40702,69.09489 20.35962,70.49889 8.24022,58.38669 C-3.87198,46.26819 -2.46888,25.22259 11.37672,11.37969 C25.22682,-2.46951 46.26612,-3.87351 58.38642,8.24409" id="Fill-4" fill="#FFD949" mask="url(#mask-4)"></path>
                </g>
                <path d="M28.87974,61.56558 C22.23954,61.56558 16.18074,59.15988 11.82114,54.80028 C1.69884,44.68518 3.10914,26.81208 14.95494,14.95818 C21.24414,8.67168 29.55384,5.06628 37.74744,5.06628 C44.38674,5.06628 50.44014,7.46568 54.79974,11.82438 C64.92204,21.94488 63.51804,39.81888 51.67134,51.67278 C45.38304,57.95298 37.07334,61.56558 28.87974,61.56558" id="Fill-7" fill="#F4BF1A"></path>
                <path d="M56.11005,54.31761 L61.49655,59.71041 C62.08425,59.08491 62.64585,58.45491 63.18405,57.81051 L57.79845,52.42581 C57.26745,53.07561 56.69145,53.70021 56.11005,54.31761" id="Fill-9" fill="#DCA815"></path>
                <path d="M51.4233,58.58469 L56.8161,63.97569 C57.4767,63.46269 58.1328,62.91819 58.7691,62.35029 L53.3889,56.97099 C52.7463,57.53439 52.0911,58.07259 51.4233,58.58469" id="Fill-11" fill="#DCA815"></path>
                <path d="M60.09894,49.35402 L65.48364,54.73872 C65.97324,54.02232 66.43674,53.28612 66.87504,52.54362 L61.49664,47.17152 C61.06284,47.91402 60.58674,48.63762 60.09894,49.35402" id="Fill-13" fill="#DCA815"></path>
                <path d="M63.32013,43.62264 L68.71113,49.01364 C69.09453,48.17304 69.44103,47.32524 69.75603,46.47204 L64.37133,41.08734 C64.05633,41.94054 63.69633,42.78024 63.32013,43.62264" id="Fill-15" fill="#DCA815"></path>
                <path d="M46.00656,62.12718 L51.39936,67.51188 C52.15896,67.10508 52.92036,66.67128 53.66106,66.19518 L48.27006,60.80418 C47.52756,61.27398 46.77426,61.71318 46.00656,62.12718" id="Fill-17" fill="#DCA815"></path>
                <path d="M39.75579,64.82889 L45.14679,70.21359 C46.02519,69.93009 46.89819,69.60969 47.76309,69.24969 L42.37749,63.86499 C41.51259,64.22319 40.64049,64.53819 39.75579,64.82889" id="Fill-19" fill="#DCA815"></path>
                <path d="M30.72852,66.54807 L36.12672,71.93907 C37.20222,71.87697 38.28492,71.76627 39.36672,71.60517 L33.97482,66.20787 C32.88582,66.36897 31.81122,66.48597 30.72852,66.54807" id="Fill-21" fill="#DCA815"></path>
                <path d="M20.7675,65.53998 L26.1783,70.94358 C27.6183,71.33328 29.0961,71.61138 30.5991,71.78508 L25.1883,66.38238 C23.6925,66.20148 22.2138,65.92968 20.7675,65.53998" id="Fill-23" fill="#DCA815"></path>
                <path d="M65.95425,35.51085 L71.33265,40.88925 C71.54325,39.85785 71.69805,38.81745 71.80875,37.78515 L66.41775,32.39505 C66.30705,33.43275 66.15855,34.47135 65.95425,35.51085" id="Fill-25" fill="#DCA815"></path>
                <path d="M71.94528,32.54976 C71.87688,31.18176 71.72208,29.82906 71.48178,28.49976 L66.05838,23.07636 C66.31308,24.43086 66.50478,25.79076 66.57768,27.17586 L71.94528,32.54976 Z" id="Fill-27" fill="#DCA815"></path>
                <path d="M48.04209,28.24623 C47.73879,20.87703 42.30909,18.02583 33.98769,18.01953 C33.62229,18.01953 33.25779,18.03213 32.90499,18.05643 C30.30759,18.22383 27.89649,17.81523 26.15229,16.63443 C25.44849,16.15833 24.88599,15.65793 24.53319,15.13233 C24.37209,14.89653 23.92029,15.05853 23.89689,15.36093 C23.85909,15.88653 23.82849,16.49853 23.83929,17.17893 C23.87799,19.73853 23.61789,19.35963 22.06089,21.77253 C21.20139,23.11443 20.50749,24.61023 19.99449,26.22303 C18.86319,26.68743 17.94249,27.68283 17.67609,28.90773 L17.32329,30.52683 C17.00829,31.99293 17.70759,33.37083 18.96129,33.99003 C19.15479,37.63683 20.50119,40.90203 23.74209,43.18263 L23.33349,45.39033 C23.22909,45.95913 22.81419,46.40373 22.27599,46.53963 L14.71419,48.38283 C12.74859,48.95883 11.24469,50.68863 10.75059,52.92783 L10.63449,53.45793 C11.01699,53.91693 11.39319,54.37503 11.82699,54.80073 C16.18029,59.15943 22.23999,61.56513 28.87929,61.56513 C34.53669,61.56513 40.24449,59.84613 45.30879,56.71053 L36.68319,50.05863 C36.11979,49.62033 35.82369,48.95163 35.91099,48.32703 L36.25569,45.84843 C41.09769,44.99523 44.28729,41.97213 46.14849,37.81683 C48.31929,37.56843 50.07609,36.14733 50.25519,34.21773 L50.45949,32.10363 C50.61429,30.50343 49.59369,29.04363 48.04209,28.24623" id="Fill-29" fill="#FFD949"></path>
            </g>
        </g>
    </g>
</svg>