<?xml version="1.0" encoding="UTF-8"?>
<svg width="120px" height="56px" viewBox="0 0 120 56" version="1.1" xmlns="http://www.w3.org/2000/svg" xmlns:xlink="http://www.w3.org/1999/xlink">
    <title>Logo_Roo_v2</title>
    <defs>
        <linearGradient x1="0%" y1="50%" x2="100%" y2="50%" id="linearGradient-1">
            <stop stop-color="#FFB338" offset="0%"></stop>
            <stop stop-color="#FD9C3C" offset="100%"></stop>
        </linearGradient>
    </defs>
    <g id="Page-1" stroke="none" stroke-width="1" fill="none" fill-rule="evenodd">
        <g id="Logo_Roo_v2">
            <path d="M67.858772,40.8829477 C71.2401125,40.750597 74.6606192,38.3085764 75.2270213,34.8813886 C75.5072096,33.1817264 74.807241,31.4631569 73.2345712,30.6292477 C71.8125403,29.8759431 69.7628473,29.9495818 68.7766649,31.3347866 C67.8246272,32.6732209 67.6860394,34.8823838 67.2983954,36.4636269 C67.1266671,37.1711561 66.955943,37.8737097 66.7219507,38.5563609 C66.5482138,39.0638713 66.2911235,39.8231466 66.541184,40.3406082 C66.6285546,40.5257002 66.7832105,40.6799436 67.0272454,40.7804505 C67.2873486,40.8889184 67.5775794,40.893894 67.858772,40.8829477 Z M79.946035,51.760587 C81.7757952,54.5379625 77.1582117,56.3640047 75.0603143,55.9390892 C71.7321995,55.265394 71.2822914,50.7893514 70.521063,48.1393511 C70.1213679,46.7471805 69.9817758,44.7639095 68.90521,43.7160498 C67.8145846,42.6532634 66.0782205,42.3965228 65.1251786,43.7389376 C63.9622465,45.3778976 64.1902134,47.4079391 63.5886621,49.2329863 C63.3275548,50.0241054 62.9158085,50.7833807 62.2921636,51.3416422 C61.7267657,51.8471623 59.0092404,53.0930505 58.4870257,51.9277669 C58.356472,51.6381874 59.0433853,50.8629902 59.1789602,50.6221715 C59.5404935,49.9833055 59.8628607,49.3225469 60.1450575,48.6468615 C61.2206191,46.0665195 61.573114,43.2503344 62.2128271,40.5465977 C62.8535444,37.8358952 63.491249,35.1261878 64.1309621,32.4154852 C64.3257883,31.5875467 63.8116077,31.237265 63.0503792,31.5527176 C61.5168755,32.1905885 60.2133472,33.4902131 59.6218385,35.0376222 C59.011249,36.6318019 59.2884245,38.3563421 59.4139569,40.0072435 C59.5003232,41.1546151 59.1377856,42.3935375 58.2921994,43.2125199 C57.2919573,44.1807701 55.7474067,44.2673454 54.4197762,44.4594033 C52.7828338,44.6952463 51.1478999,44.9002407 49.5049319,45.0743864 C44.4143423,45.6117504 39.2685185,45.9212322 34.1488054,45.818735 C23.3801346,45.599809 8.70690425,44.6882805 1.594741,35.3461089 C-0.0502354782,33.1847118 -0.452943394,30.3346927 0.528217788,27.808087 C1.40493602,25.2685449 3.3963819,22.6215299 6.59796005,20.000388 L6.87011427,22.3627991 C4.33335568,24.5251914 2.59096607,26.6746472 1.93719337,28.5882599 C1.20609271,30.4113168 1.49933638,32.481163 2.70946865,34.0335478 C4.20481051,36.0994136 6.25048638,37.6955835 8.5040439,38.8807695 C13.8165748,41.6760571 20.1996459,42.5806197 26.1066982,43.1786859 C32.5982292,43.8344689 39.2213183,43.7757569 45.672679,43.3030757 C46.5383504,43.238393 55.3085455,42.1576944 55.3346562,42.2412844 C54.9791485,41.094908 54.9168844,39.8530002 55.093634,38.6598532 C55.5997807,35.2237094 57.5159071,31.9139456 60.4312714,29.9555525 C63.9592338,27.5851805 68.4412423,26.8269003 72.6380413,27.0617482 C74.8695051,27.1871331 77.0166111,27.7722628 78.4557145,29.5604905 C81.7054971,33.6016664 79.1586959,39.2489633 74.9327734,41.4272775 C74.5150016,41.6422231 74.0771446,41.8293053 73.7045645,42.1149043 C72.9152168,42.7229217 72.830859,43.6682841 73.070877,44.5758321 C73.575015,46.4685473 74.5441251,48.2657312 75.470052,49.9813153 C76.1328631,51.2073012 76.9161852,50.4967866 78.0088192,50.6301325 C78.7710518,50.7236736 79.5202292,51.1147552 79.946035,51.760587 Z M119.598404,35.7144023 C119.966967,35.9074552 120.106559,36.3582439 119.912737,36.7224572 C118.377225,39.595364 115.301179,41.4293672 113.240439,42.393637 C110.615306,46.5184028 105.64121,49.3425488 101.287747,46.579105 C99.9651376,45.7382299 99.2219859,44.4684589 98.9197039,43.0563858 C97.0116115,44.7341555 94.7701051,45.7909712 93.5358706,46.2825597 C90.7972559,49.8968297 86.2349066,52.1209194 82.2068232,49.5644602 C79.5505578,47.8777345 79.2301991,44.4585077 80.1310196,41.6433177 C80.3288586,41.0243541 80.585949,40.4342488 80.8892352,39.8988751 C82.8515576,36.4418338 86.6366103,32.5230575 91.0603718,33.3878154 C93.4645682,33.8575113 95.3575967,35.695495 95.854705,38.04895 C96.2533959,39.9376848 95.8607305,42.0353944 94.9418334,43.9708997 C96.1971573,43.3021801 97.641282,42.3488567 98.7801119,41.1089391 C98.8162652,40.2780153 98.9598742,39.4451012 99.2119433,38.6579625 C99.4097823,38.0389988 99.6668727,37.4488936 99.9701589,36.9135199 C101.932481,33.4564786 105.717534,29.5377023 110.141296,30.4024602 C112.545492,30.8721561 114.43852,32.7101398 114.935629,35.0635948 C115.272055,36.6557843 115.04208,38.3972415 114.41241,40.0650599 C115.973028,39.1187023 117.642107,37.7812632 118.581089,36.0248792 C118.774911,35.6606659 119.231849,35.5223444 119.598404,35.7144023 Z M108.647962,39.2231897 C109.949482,38.2091641 111.423734,37.2349432 110.977843,35.3770571 C110.705689,34.2386417 109.806877,33.5669367 108.594736,33.5928098 C107.700946,33.6107219 106.850338,34.0197156 106.154387,34.5769819 C105.141089,35.3870083 104.213154,36.4995507 103.631688,37.653888 C103.12755,38.6529869 102.814221,39.9038507 102.93674,41.0193785 C103.043192,41.9945945 103.520215,42.956874 104.333665,43.5171257 C105.193311,44.1102162 106.998969,44.2694352 107.61458,43.2156048 C108.439076,41.8005464 107.01805,40.4919657 108.647962,39.2231897 Z M89.5670385,42.208545 C90.8685583,41.1945193 92.3428108,40.2202984 91.8969197,38.3624123 C91.6247655,37.2239969 90.7259535,36.552292 89.5138128,36.578165 C88.6200221,36.5960772 87.7694146,37.0050708 87.073463,37.5623371 C86.0601656,38.3723635 85.1322301,39.4849059 84.5507641,40.6392432 C84.046626,41.6383421 83.7332971,42.8892059 83.8558167,44.0047337 C83.9622682,44.9799497 84.4392913,45.9422292 85.2527412,46.5024809 C86.112387,47.0955714 87.918045,47.2547904 88.5336558,46.20096 C89.3581526,44.7859016 87.9371259,43.4773209 89.5670385,42.208545 Z" id="Shape" fill="url(#linearGradient-1)"></path>
            <path d="M8.99937757,0.000388028316 L22.9573476,0.166388028 L22.9573476,3.32538803 L14.3163188,3.32538803 L14.3163188,12.470388 L19.2184986,11.223388 L19.2184986,15.047388 L14.6481279,16.626388 L14.6281394,30.418388 L35.7409933,30.418388 L37.3300791,34.000388 L8.99937757,34.000388 L8.99937757,0.000388028316 Z M28.1202774,25.584388 C28.1202774,25.584388 32.7046401,24.706388 33.3362767,24.470388 C36.1566542,23.414388 38.1155272,21.232388 36.6763552,18.145388 C34.5036051,13.488388 26.9579461,11.372388 26.800037,5.79538803 C26.7420703,3.77238803 28.0773022,2.16338803 29.7853195,1.25138803 C32.2848816,-0.0816119717 38.1974801,0.00138802832 38.1974801,0.00138802832 L38.1974801,2.75138803 C36.031726,2.70038803 32.4228022,2.63138803 30.8537049,4.43638803 C28.3831262,7.28138803 34.6235361,11.117388 36.3415478,12.480388 C40.6500691,15.900388 44.1270688,22.660388 38.2684393,26.550388 C37.038147,27.367388 35.6299572,27.899388 34.2107736,28.285388 C33.8000099,28.397388 30.505905,29.334388 30.2860315,29.001388 C30.2840326,28.998388 28.1202774,25.584388 28.1202774,25.584388 Z M66.477111,15.631288 L69.2365235,15.171288 L68.5009467,3.78428803 L66.477111,3.78428803 L66.477111,15.631288 Z M63.9485656,0.000288028316 L70.8445984,0.000288028316 L74.7603457,21.932288 C73.3101799,21.956288 71.8600142,22.016288 70.4098485,22.148288 L69.9251273,19.081288 L65.7875077,20.116288 L65.5736307,22.926288 C64.5192373,23.181288 63.4658433,23.499288 62.4124493,23.901288 L63.9485656,0.000288028316 Z M48.6191845,6.30508803 C48.2144174,7.06608803 48.072499,7.95708803 48.3433432,8.95808803 C49.0819183,11.689088 52.7338174,13.326088 54.7536554,15.041088 C57.0603284,17.002088 58.6334234,19.559088 58.7373636,22.653088 C58.8922745,27.228088 55.9769517,30.599088 51.9392745,32.344088 C49.9843991,33.189088 47.8806094,33.609088 45.7688243,33.811088 C45.2211394,33.864088 41.653192,34.018088 39.6633368,33.989088 C39.6623374,33.989088 38.0312757,30.370088 38.0312757,30.370088 C38.0312757,30.370088 43.7040122,29.967088 47.733694,28.704088 C50.3451916,27.886088 52.3720255,26.416088 52.9766777,23.556088 C53.3884408,21.604088 52.772795,19.755088 51.5694872,18.204088 C49.7215503,15.824088 46.9151648,14.391088 45.1102032,11.969088 C42.5926516,8.59008803 43.6550404,4.10908803 47.0600815,1.85108803 C49.9494193,-0.0649119717 53.7052585,-0.170911972 57.045337,0.124088028 C57.2222352,0.140088028 57.6090127,0.183088028 57.6090127,0.183088028 C57.6090127,0.183088028 57.605015,2.52008803 57.6020168,3.42808803 C56.1298637,3.19908803 54.4738164,3.19808803 53.0006639,3.46508803 C51.2976436,3.77408803 49.4307177,4.77708803 48.6191845,6.30508803 Z M78.9240503,0.500388028 L82.2561334,0.333388028 C82.2561334,0.333388028 82.8387982,17.583388 85.6701693,19.750388 C88.5025399,21.917388 90.0016774,0.000388028316 90.0016774,0.000388028316 L93.9993776,0.0833880283 C93.9993776,0.0833880283 91.8336235,28.083388 84.5048397,32.083388 L82.6718942,30.500388 C83.8472181,27.925388 85.5532366,25.929388 84.0361094,23.126388 C80.1753305,15.990388 79.4967209,8.45438803 78.9240503,0.500388028 Z" id="Shape" fill="#593321"></path>
        </g>
    </g>
</svg>